# xmcd
#
# Track frame offsets:
#	150
#	16362
#	33271
#	47802
#	64726
#	78509
#	93446
#	107574
#	128972
#	147354
#	163837
#	181654
#	199311
#	215974
#	234734
#	254719
#	272755
#	290671
#	311292
#	327252
#	344596
#
# Disc length: 4798 seconds
#
# Revision: 1
# Processed by: cddbd v1.5.2PL0 Copyright (c) Steve Scherf et al.
# Submitted via: audiograbber 1.83.01
#
DISCID=4712bc15
DTITLE=Various Artist - Latin Party Vol 2
DYEAR=2012
DGENRE=Latin
TTITLE0=Amy Winehouse - Cupid
TTITLE1=Blackout Allstars - I Like It Like That
TTITLE2=Cidinho and Doca - Rap Das Armas (Frappe Beasy Mix)
TTITLE3=Dario G - Carnaval De Paris
TTITLE4=Elvis Crespo - Suavamente (Merengue) (DMC Edit)
TTITLE5=Enrigue Iglasias and Juan Luis Guerra - Cuando Me Enamoro
TTITLE6=Geri Halliwell - Mi Chico Latino
TTITLE7=Gipsy Kings - Medley
TTITLE8=Gloria Estefan - Oyi Mi Canto (Hear My Voice)
TTITLE9=Jennifer Lopez - Amor Se Paga Con Amor (Love Don't Cost A Thing ) (Span
TTITLE9=ish)
TTITLE10=Jennifer Lopez - Let's Get Loud
TTITLE11=Kaiser Chiefs - I Heard It Through The Grapevine
TTITLE12=Madonna - La Isla Bonita
TTITLE13=Proyecto Uno - Latinos (DMC Edit)
TTITLE14=Ricky Martin - Cup Of Life (La Copa De La Vida) (Spanish Mix)
TTITLE15=Ricky Martin - Livin' La Vida Loca (Spanish Mix)
TTITLE16=Santana Ft. Rob Thomas - Smooth
TTITLE17=Shakira - Ciega Sordamuda
TTITLE18=Shakira and Wyclef Jean and Bamboo - Hips Don't Lie (Bamboo Mix)
TTITLE19=Shakira - Loba (She Wolf) (Spanish)
TTITLE20=Yolanda Be Cool and Cup - We No Speak Americano (DMC Extended Radio)
EXTD=
EXTT0=
EXTT1=
EXTT2=
EXTT3=
EXTT4=
EXTT5=
EXTT6=
EXTT7=
EXTT8=
EXTT9=
EXTT10=
EXTT11=
EXTT12=
EXTT13=
EXTT14=
EXTT15=
EXTT16=
EXTT17=
EXTT18=
EXTT19=
EXTT20=
PLAYORDER=
